HIERARCHY
ROOT SpineBase
{
  OFFSET 0.000000 0.000000 0.000000
  CHANNELS 6 Xposition Yposition Zposition Zrotation Xrotation Yrotation
  JOINT SpineMid
  {
    OFFSET 0.000000 30.039593 0.000000
    CHANNELS 3 Zrotation Xrotation Yrotation
    JOINT SpineShoulder
    {
      OFFSET 0.030911 22.303147 -0.920060
      CHANNELS 3 Zrotation Xrotation Yrotation
      JOINT Neck
      {
        OFFSET 0.105160 7.389362 -0.622546
        CHANNELS 3 Zrotation Xrotation Yrotation
        JOINT Head
        {
          OFFSET -6.549161 11.529154 -0.199274
          CHANNELS 3 Zrotation Xrotation Yrotation
          End Site
          {
            OFFSET 0 0 0
          }
        }
      }
      JOINT ShoulderLeft
      {
        OFFSET -12.268701 -5.110176 6.535737
        CHANNELS 3 Zrotation Xrotation Yrotation
        JOINT ElbowLeft
        {
          OFFSET -2.440632 -28.632220 -1.595587
          CHANNELS 3 Zrotation Xrotation Yrotation
          JOINT WristLeft
          {
            OFFSET 2.877945 -21.765069 -0.906671
            CHANNELS 3 Zrotation Xrotation Yrotation
            JOINT HandLeft
            {
              OFFSET 0.187979 -2.630748 -0.812113
              CHANNELS 3 Zrotation Xrotation Yrotation
              JOINT HandTipLeft
              {
                OFFSET 0.666889 -3.727437 -0.277015
                CHANNELS 3 Zrotation Xrotation Yrotation
                End Site
                {
                  OFFSET 0 0 0
                }
              }
              JOINT ThumbLeft
              {
                OFFSET 1.864727 0.891140 -3.015994
                CHANNELS 3 Zrotation Xrotation Yrotation
                End Site
                {
                  OFFSET 0 0 0
                }
              }
            }
          }
        }
      }
      JOINT ShoulderRight
      {
        OFFSET 11.436215 -4.230354 -10.985596
        CHANNELS 3 Zrotation Xrotation Yrotation
        JOINT ElbowRight
        {
          OFFSET 6.955306 -22.848036 -4.807871
          CHANNELS 3 Zrotation Xrotation Yrotation
          JOINT WristRight
          {
            OFFSET -4.710500 -20.711081 -3.306850
            CHANNELS 3 Zrotation Xrotation Yrotation
            JOINT HandRight
            {
              OFFSET -1.104859 -6.249248 0.209072
              CHANNELS 3 Zrotation Xrotation Yrotation
              JOINT HandTipRight
              {
                OFFSET -0.021499 -7.866083 0.676964
                CHANNELS 3 Zrotation Xrotation Yrotation
                End Site
                {
                  OFFSET 0 0 0
                }
              }
              JOINT ThumbRight
              {
                OFFSET -3.221553 0.051243 -2.330297
                CHANNELS 3 Zrotation Xrotation Yrotation
                End Site
                {
                  OFFSET 0 0 0
                }
              }
            }
          }
        }
      }
    }
  }
  JOINT HipLeft
  {
    OFFSET -5.315793 -0.370628 0.442153
    CHANNELS 3 Zrotation Xrotation Yrotation
    JOINT KneeLeft
    {
      OFFSET 5.682354 -28.824300 5.432817
      CHANNELS 3 Zrotation Xrotation Yrotation
      JOINT AnkleLeft
      {
        OFFSET 0.352425 -35.805338 7.469781
        CHANNELS 3 Zrotation Xrotation Yrotation
        JOINT FootLeft
        {
          OFFSET -5.673533 -6.291051 -3.834941
          CHANNELS 3 Zrotation Xrotation Yrotation
          End Site
          {
            OFFSET 0 0 0
          }
        }
      }
    }
  }
  JOINT HipRight
  {
    OFFSET 6.144722 1.185160 -7.438994
    CHANNELS 3 Zrotation Xrotation Yrotation
    JOINT KneeRight
    {
      OFFSET 12.266633 -32.928406 -0.536393
      CHANNELS 3 Zrotation Xrotation Yrotation
      JOINT AnkleRight
      {
        OFFSET 5.142039 -31.669860 -0.675064
        CHANNELS 3 Zrotation Xrotation Yrotation
        JOINT FootRight
        {
          OFFSET -1.595350 -6.859321 -9.965688
          CHANNELS 3 Zrotation Xrotation Yrotation
          End Site
          {
            OFFSET 0 0 0
          }
        }
      }
    }
  }
}
MOTION
Frames: 8
Frame Time: 0.033333
-52.062144 72.768615 430.522865 -0.000000 0.000000 34.515456 0.000000 0.000000 -34.515456 -0.000000 0.000000 0.000000 -0.000000 0.000000 0.000000 0.000000 0.000000 0.000000 -0.000000 0.000000 0.000000 -0.000000 0.000000 0.000000 -0.000000 0.000000 0.000000 -0.000000 0.000000 0.000000 0.000000 0.000000 0.000000 0.000000 0.000000 0.000000 -0.000000 0.000000 0.000000 -0.000000 0.000000 0.000000 -0.000000 0.000000 0.000000 -0.000000 0.000000 0.000000 0.000000 0.000000 0.000000 0.000000 0.000000 0.000000 0.000000 0.000000 -34.515456 -0.000000 0.000000 0.000000 -0.000000 0.000000 0.000000 0.000000 0.000000 0.000000 0.000000 0.000000 -34.515456 -0.000000 0.000000 0.000000 -0.000000 0.000000 0.000000 0.000000 0.000000 0.000000
-51.867814 72.917993 429.800290 -0.045001 0.297361 34.972457 -0.133568 -0.269459 -34.972655 -0.000000 0.000000 0.000000 -0.000000 0.000000 0.000000 0.000000 0.000000 0.000000 -0.000000 0.000000 0.000000 4.622624 7.303117 0.475343 3.975569 -0.119467 -2.597538 -11.485790 -7.209568 1.435998 0.000000 0.000000 0.000000 0.000000 0.000000 0.000000 -0.000000 0.000000 0.000000 -0.000000 0.000000 0.000000 -0.000000 0.000000 0.000000 -1.854197 1.888807 -0.134368 0.000000 0.000000 0.000000 0.000000 0.000000 0.000000 -0.934830 -0.989460 -35.233926 0.239173 1.050304 0.250276 2.634334 -0.611136 -1.066485 0.000000 0.000000 0.000000 -0.730766 -0.932521 -35.307218 0.104165 0.886230 0.327493 1.133554 0.206840 -1.696441 0.000000 0.000000 0.000000
-51.664536 73.048605 429.194152 -0.072297 0.506735 35.359623 -0.234295 -0.455098 -35.360234 -0.000000 0.000000 0.000000 -0.722304 -0.413274 -0.250733 0.000000 0.000000 0.000000 -0.000000 0.000000 0.000000 7.841618 12.707474 0.478933 5.056095 -1.717114 -3.676715 -17.417891 -10.654066 1.404528 0.000000 0.000000 0.000000 0.000000 0.000000 0.000000 -0.000000 0.000000 0.000000 -0.000000 0.000000 0.000000 -0.000000 0.000000 0.000000 -3.653229 3.780107 -0.204810 0.000000 0.000000 0.000000 0.000000 0.000000 0.000000 -1.763914 -1.693931 -35.861463 0.514430 1.899733 0.464011 4.900690 -0.927806 -2.208636 0.000000 0.000000 0.000000 -1.360419 -1.614366 -35.972127 0.230664 1.599502 0.588335 1.958828 0.286102 -2.918016 0.000000 0.000000 0.000000
-51.452312 73.160451 428.704452 -0.081626 0.626731 35.678049 0.024690 0.253182 -35.688006 0.209392 -0.846755 0.011355 -1.074568 -0.703963 -0.427297 0.000000 0.000000 0.000000 -0.000000 0.000000 0.000000 9.705595 16.251439 0.362826 5.405463 -2.840013 -4.139939 -20.137543 -12.136660 1.230890 0.000000 0.000000 0.000000 0.000000 0.000000 0.000000 0.865439 -0.528210 -0.338473 -0.868581 0.523028 0.346427 -0.000000 0.000000 0.000000 -5.329085 5.605422 -0.214088 0.000000 0.000000 0.000000 0.000000 0.000000 0.000000 -2.488875 -2.134276 -36.394692 -0.205406 2.578067 0.476912 7.780066 -0.912198 -3.214818 0.000000 0.000000 0.000000 -1.880227 -2.051618 -36.505532 -0.516982 1.479088 0.725432 3.380408 0.912875 -3.612355 0.000000 0.000000 0.000000
-51.231139 73.253532 428.331190 -0.072776 0.656189 35.928494 0.004508 0.317342 -35.940777 0.255546 -0.915746 0.013849 -1.422094 -1.050301 -0.638654 0.000000 0.000000 0.000000 -0.000000 0.000000 0.000000 10.266278 18.093078 0.338454 5.770678 -2.900172 -4.311986 -20.482745 -12.446511 1.245830 0.000000 0.000000 0.000000 0.000000 0.000000 0.000000 0.926243 -0.819653 -0.437386 -0.932567 0.812451 0.450624 -0.000000 0.000000 0.000000 -6.809944 7.291350 -0.173232 0.000000 0.000000 0.000000 0.000000 0.000000 0.000000 -3.111878 -2.326280 -36.830923 -0.130588 3.119482 0.597221 9.443498 -0.587558 -4.450287 0.000000 0.000000 0.000000 -2.283599 -2.249133 -36.903539 -0.525312 1.672885 0.842489 3.776479 0.966629 -3.877450 0.000000 0.000000 0.000000
-51.001020 73.327848 428.074366 -0.045581 0.594187 36.111369 -0.030740 0.371445 -36.125339 0.289557 -0.876078 0.015368 -1.765866 -1.452118 -0.885367 0.000000 0.000000 0.000000 -0.000000 0.000000 0.000000 9.550283 18.340313 0.493207 6.391014 -1.656078 -4.295212 -18.749328 -11.955723 1.513772 0.000000 0.000000 0.000000 0.000000 0.000000 0.000000 0.861573 -1.167595 -0.527890 -0.872471 1.159474 0.545498 -0.000000 0.000000 0.000000 -8.027134 8.767331 -0.100247 0.000000 0.000000 0.000000 0.000000 0.000000 0.000000 -3.635768 -2.281332 -37.167932 0.029871 3.525511 0.700187 10.588027 0.074181 -5.753980 0.000000 0.000000 0.000000 -2.566040 -2.210319 -37.163062 -0.450933 1.719759 0.893668 3.811013 0.910049 -3.670967 0.000000 0.000000 0.000000
-50.707521 73.402839 427.986699 0.108281 0.461779 36.179929 -0.360004 -0.308808 -36.181335 -0.000000 0.000000 0.000000 -2.154877 -2.042352 -1.248858 0.000000 0.000000 0.000000 -0.000000 0.000000 0.000000 5.694093 12.754985 0.810100 8.318930 4.490144 -3.994844 -11.806216 -8.277924 2.736293 0.000000 0.000000 0.000000 0.000000 0.000000 0.000000 0.383064 -1.850553 -0.639323 -0.403895 1.846120 0.652018 -1.077887 -0.879541 0.110956 -6.718215 10.560613 -0.045394 0.000000 0.000000 0.000000 0.000000 0.000000 0.000000 -4.158512 -1.853879 -37.344813 0.399695 3.759539 0.786665 11.552216 1.861860 -8.240113 0.000000 0.000000 0.000000 -2.861025 -1.783198 -37.205890 -0.193500 1.611241 0.858487 3.063816 0.532888 -2.341360 0.000000 0.000000 0.000000
-50.452513 73.441762 428.024744 0.214880 0.188052 36.283660 -0.284500 -0.024425 -36.284073 -0.000000 0.000000 0.000000 -2.291062 -2.510292 -1.532753 0.000000 0.000000 0.000000 -0.000000 0.000000 0.000000 2.317357 9.220191 0.932720 9.386709 8.003049 -3.425193 -7.001751 -9.977620 2.531062 0.000000 0.000000 0.000000 0.000000 0.000000 0.000000 0.191935 -2.224723 -0.716541 -0.219900 2.222134 0.724533 -1.690476 -1.214217 0.139792 -7.440149 12.026090 0.067511 0.000000 0.000000 0.000000 0.000000 0.000000 0.000000 -4.571712 -1.220104 -37.538022 0.815905 3.987755 0.865545 10.729072 4.595270 -10.321753 0.000000 0.000000 0.000000 -2.868299 -1.140400 -37.196517 0.090373 1.260313 0.736137 1.915772 0.018442 -0.475689 0.000000 0.000000 0.000000
